<svg width="32" height="33" viewBox="0 0 32 33" fill="none" xmlns="http://www.w3.org/2000/svg">
<path d="M28 6.58398H4C3.73478 6.58398 3.48043 6.68934 3.29289 6.87688C3.10536 7.06441 3 7.31877 3 7.58398V24.584C3 25.1144 3.21071 25.6231 3.58579 25.9982C3.96086 26.3733 4.46957 26.584 5 26.584H27C27.5304 26.584 28.0391 26.3733 28.4142 25.9982C28.7893 25.6231 29 25.1144 29 24.584V7.58398C29 7.31877 28.8946 7.06441 28.7071 6.87688C28.5196 6.68934 28.2652 6.58398 28 6.58398ZM25.4287 8.58398L16 17.2277L6.57125 8.58398H25.4287ZM27 24.584H5V9.85773L15.3237 19.3215C15.5082 19.4908 15.7496 19.5848 16 19.5848C16.2504 19.5848 16.4918 19.4908 16.6763 19.3215L27 9.85773V24.584Z" fill="white"/>
</svg>
