<svg width="32" height="33" viewBox="0 0 32 33" fill="none" xmlns="http://www.w3.org/2000/svg">
<g clip-path="url(#clip0_39_935)">
<path d="M32 16.584C32 7.74746 24.8366 0.584021 16 0.584021C7.16344 0.584021 0 7.74746 0 16.584C0 24.5701 5.85097 31.1893 13.5 32.3896V21.209H9.4375V16.584H13.5V13.059C13.5 9.04902 15.8887 6.83402 19.5434 6.83402C21.294 6.83402 23.125 7.14652 23.125 7.14652V11.084H21.1074C19.1198 11.084 18.5 12.3174 18.5 13.5827V16.584H22.9375L22.2281 21.209H18.5V32.3896C26.149 31.1893 32 24.5701 32 16.584Z" fill="#1877F2"/>
<path d="M22.2281 21.209L22.9375 16.584H18.5V13.5826C18.5 12.3173 19.1198 11.084 21.1074 11.084H23.125V7.14648C23.125 7.14648 21.294 6.83398 19.5434 6.83398C15.8887 6.83398 13.5 9.04898 13.5 13.059V16.584H9.4375V21.209H13.5V32.3896C14.3146 32.5174 15.1495 32.584 16 32.584C16.8505 32.584 17.6854 32.5174 18.5 32.3896V21.209H22.2281Z" fill="white"/>
</g>
<defs>
<clipPath id="clip0_39_935">
<rect width="32" height="32" fill="white" transform="translate(0 0.583984)"/>
</clipPath>
</defs>
</svg>
