<svg width="32" height="33" viewBox="0 0 32 33" fill="none" xmlns="http://www.w3.org/2000/svg">
<g id="House">
<path id="Vector" d="M27.3538 13.5551L17.3538 4.12006C17.3489 4.1158 17.3443 4.1112 17.34 4.10631C16.9718 3.77148 16.492 3.58594 15.9944 3.58594C15.4967 3.58594 15.0169 3.77148 14.6488 4.10631L14.635 4.12006L4.64625 13.5551C4.4425 13.7424 4.27985 13.97 4.16861 14.2235C4.05737 14.477 3.99996 14.7508 4 15.0276V26.5838C4 27.1142 4.21071 27.623 4.58579 27.998C4.96086 28.3731 5.46957 28.5838 6 28.5838H12C12.5304 28.5838 13.0391 28.3731 13.4142 27.998C13.7893 27.623 14 27.1142 14 26.5838V20.5838H18V26.5838C18 27.1142 18.2107 27.623 18.5858 27.998C18.9609 28.3731 19.4696 28.5838 20 28.5838H26C26.5304 28.5838 27.0391 28.3731 27.4142 27.998C27.7893 27.623 28 27.1142 28 26.5838V15.0276C28 14.7508 27.9426 14.477 27.8314 14.2235C27.7201 13.97 27.5575 13.7424 27.3538 13.5551ZM26 26.5838H20V20.5838C20 20.0534 19.7893 19.5447 19.4142 19.1696C19.0391 18.7945 18.5304 18.5838 18 18.5838H14C13.4696 18.5838 12.9609 18.7945 12.5858 19.1696C12.2107 19.5447 12 20.0534 12 20.5838V26.5838H6V15.0276L6.01375 15.0151L16 5.58381L25.9875 15.0126L26.0012 15.0251L26 26.5838Z" fill="white"/>
</g>
</svg>
