<svg width="32" height="33" viewBox="0 0 32 33" fill="none" xmlns="http://www.w3.org/2000/svg">
<g id="Phone">
<path id="Vector" d="M27.7962 20.3912L21.9075 17.7525L21.8913 17.745C21.5855 17.6142 21.2521 17.5618 20.921 17.5923C20.5899 17.6229 20.2716 17.7355 19.995 17.92C19.9624 17.9415 19.9311 17.9649 19.9013 17.99L16.8587 20.5837C14.9312 19.6475 12.9412 17.6725 12.005 15.77L14.6025 12.6812C14.6275 12.65 14.6512 12.6187 14.6737 12.585C14.8543 12.3091 14.9638 11.9929 14.9926 11.6644C15.0214 11.336 14.9685 11.0056 14.8387 10.7025V10.6875L12.1925 4.78873C12.0209 4.39281 11.7259 4.063 11.3515 3.84853C10.9771 3.63406 10.5433 3.54643 10.115 3.59873C8.42121 3.82161 6.86647 4.65344 5.74117 5.93885C4.61586 7.22426 3.99694 8.87534 4 10.5837C4 20.5087 12.075 28.5837 22 28.5837C23.7084 28.5868 25.3595 27.9679 26.6449 26.8426C27.9303 25.7173 28.7621 24.1625 28.985 22.4687C29.0374 22.0406 28.95 21.6069 28.7357 21.2325C28.5215 20.8581 28.1919 20.563 27.7962 20.3912ZM22 26.5837C17.758 26.5791 13.691 24.8919 10.6914 21.8923C7.69183 18.8927 6.00463 14.8258 6 10.5837C5.9953 9.36309 6.43506 8.18248 7.23717 7.26236C8.03928 6.34225 9.14888 5.74556 10.3588 5.58373C10.3583 5.58872 10.3583 5.59374 10.3588 5.59873L12.9838 11.4737L10.4 14.5662C10.3738 14.5964 10.35 14.6286 10.3287 14.6625C10.1406 14.9511 10.0303 15.2835 10.0084 15.6273C9.98649 15.9711 10.0538 16.3148 10.2037 16.625C11.3362 18.9412 13.67 21.2575 16.0112 22.3887C16.3237 22.5373 16.6694 22.6023 17.0144 22.5773C17.3595 22.5523 17.6922 22.4382 17.98 22.2462C18.0121 22.2246 18.043 22.2012 18.0725 22.1762L21.1112 19.5837L26.9862 22.215C26.9862 22.215 26.9963 22.215 27 22.215C26.8401 23.4266 26.2443 24.5384 25.3241 25.3425C24.4038 26.1466 23.2221 26.5878 22 26.5837Z" fill="white"/>
</g>
</svg>
