<svg width="32" height="33" viewBox="0 0 32 33" fill="none" xmlns="http://www.w3.org/2000/svg">
<g clip-path="url(#clip0_39_940)">
<path d="M16.0004 32.5848C24.8372 32.5848 32.0008 25.4212 32.0008 16.5844C32.0008 7.74761 24.8372 0.583984 16.0004 0.583984C7.16362 0.583984 0 7.74761 0 16.5844C0 25.4212 7.16362 32.5848 16.0004 32.5848Z" fill="black"/>
<path d="M13.7738 13.8872V13.0139C13.4744 12.973 13.1702 12.9473 12.8595 12.9473C9.11909 12.9473 6.07617 15.9902 6.07617 19.7306C6.07617 22.0254 7.22319 24.0562 8.9722 25.2843C7.84285 24.0723 7.15014 22.4485 7.15014 20.6657C7.15014 16.9791 10.1072 13.9723 13.7738 13.8864V13.8872Z" fill="#25F4EE"/>
<path d="M13.9335 23.7652C15.6022 23.7652 16.9636 22.4376 17.0254 20.7841L17.031 6.01421H19.7296C19.6734 5.7108 19.6429 5.39856 19.6429 5.0791H15.957L15.9514 19.849C15.8896 21.5033 14.5283 22.8301 12.8595 22.8301C12.341 22.8301 11.8522 22.7001 11.4227 22.4745C11.9862 23.2547 12.9004 23.766 13.9343 23.766L13.9335 23.7652Z" fill="#25F4EE"/>
<path d="M24.7703 11.0271V10.2059C23.7412 10.2059 22.7821 9.90012 21.9778 9.37598C22.6938 10.1979 23.6666 10.7911 24.7703 11.0271Z" fill="#25F4EE"/>
<path d="M21.9779 9.37525C21.1937 8.47465 20.7169 7.29874 20.7169 6.01367H19.7296C19.9897 7.41754 20.8228 8.62235 21.9779 9.37525Z" fill="#FE2C55"/>
<path d="M12.8595 16.6336C11.1515 16.6336 9.76123 18.023 9.76123 19.7319C9.76123 20.9214 10.4363 21.9553 11.422 22.4738C11.0543 21.9649 10.8352 21.3412 10.8352 20.667C10.8352 18.9589 12.2254 17.5687 13.9335 17.5687C14.2522 17.5687 14.558 17.6216 14.8477 17.7115V13.9494C14.5483 13.9085 14.2441 13.8828 13.9335 13.8828C13.8797 13.8828 13.8267 13.886 13.773 13.8868V16.7764C13.484 16.6857 13.1774 16.6336 12.8587 16.6336H12.8595Z" fill="#FE2C55"/>
<path d="M24.7703 11.0273V13.8921C22.8591 13.8921 21.0885 13.2804 19.6428 12.2434V19.7331C19.6428 23.4735 16.5999 26.5164 12.8595 26.5164C11.4139 26.5164 10.0734 26.0605 8.97217 25.2868C10.2115 26.6168 11.9766 27.4516 13.9343 27.4516C17.6747 27.4516 20.7176 24.4086 20.7176 20.6682V13.1785C22.1632 14.2163 23.9339 14.8272 25.8451 14.8272V11.1413C25.4766 11.1413 25.117 11.1012 24.7711 11.0273H24.7703Z" fill="#FE2C55"/>
<path d="M19.6429 19.7321V12.2424C21.0885 13.2802 22.8592 13.8911 24.7703 13.8911V11.0263C23.6667 10.7904 22.6938 10.1972 21.9778 9.37525C20.8228 8.62235 19.9896 7.41754 19.7296 6.01367H17.031L17.0254 20.7836C16.9636 22.4379 15.6022 23.7647 13.9335 23.7647C12.8997 23.7647 11.9854 23.2542 11.422 22.4732C10.4355 21.9539 9.76123 20.9208 9.76123 19.7313C9.76123 18.0232 11.1515 16.633 12.8595 16.633C13.1782 16.633 13.484 16.686 13.7738 16.7759V13.8862C10.1072 13.9721 7.15015 16.9789 7.15015 20.6656C7.15015 22.4491 7.84285 24.0721 8.9722 25.2841C10.0743 26.0579 11.4139 26.5138 12.8595 26.5138C16.6 26.5138 19.6429 23.4709 19.6429 19.7305V19.7321Z" fill="white"/>
</g>
<defs>
<clipPath id="clip0_39_940">
<rect width="32" height="32" fill="white" transform="translate(0 0.583984)"/>
</clipPath>
</defs>
</svg>
