<svg width="32" height="23" viewBox="0 0 32 23" fill="none" xmlns="http://www.w3.org/2000/svg">
<g clip-path="url(#clip0_39_930)">
<path d="M31.3313 3.85776C30.9633 2.4767 29.8791 1.38917 28.5022 1.02008C26.0067 0.349297 16 0.349297 16 0.349297C16 0.349297 5.99333 0.349297 3.4978 1.02008C2.12102 1.38917 1.03665 2.4767 0.668678 3.85776C0 6.36083 0 11.5833 0 11.5833C0 11.5833 0 16.8058 0.668678 19.3091C1.03665 20.69 2.12102 21.7775 3.4978 22.1468C5.99333 22.8174 16 22.8174 16 22.8174C16 22.8174 26.0067 22.8174 28.5022 22.1468C29.8791 21.7775 30.9633 20.69 31.3313 19.3091C32 16.8058 32 11.5833 32 11.5833C32 11.5833 32 6.36083 31.3313 3.85776Z" fill="#ED1D24"/>
<path d="M12.7273 16.3252L21.0909 11.5838L12.7273 6.84194V16.3252Z" fill="white"/>
</g>
<defs>
<clipPath id="clip0_39_930">
<rect width="32" height="22.4681" fill="white" transform="translate(0 0.349609)"/>
</clipPath>
</defs>
</svg>
